<svg width="62" height="62" viewBox="0 0 62 62" fill="none" xmlns="http://www.w3.org/2000/svg">
<g clip-path="url(#clip0)">
<path fill-rule="evenodd" clip-rule="evenodd" d="M30.6829 5.01112e-05L29.7982 1.0799L28.3135 5.28502L27.8152 9.98853L26.9915 7.64193L25.6797 9.98853L27.1644 12.3455L26.3407 14.0276L24.8561 11.1722L24.5205 14.2041L26.1679 16.0523L25.5171 18.0667L23.3714 15.7097L23.5341 18.2328L25.3442 20.4237V22.7807L24.0324 21.9397L21.8867 20.2576L22.5477 23.2791L24.6933 25.1377L24.8561 27.4947L22.8731 27.1521L20.2393 25.47L21.5612 29.6751L24.0323 30.5162L24.195 32.3644L22.0494 32.5409L21.8866 37.5873L23.3713 37.7534L23.0459 51.8849H20.5748V54.7403L21.7239 54.9168V56.4224H23.2086V58.6132H21.0629V61.3025L40.3435 61.4686V58.7794H38.1978V56.5989H39.6825V55.0829L40.8316 54.9168V52.051H38.3605L38.035 37.9196L39.5197 37.7534L39.357 32.707L37.2113 32.5409L37.374 30.6823L39.8451 29.8413L41.1671 25.6362L38.5333 27.3182L36.5503 27.6609L36.713 25.3039L38.8587 23.4556L39.5197 20.4237L37.374 22.1058L36.0622 22.9468V20.5898L37.8723 18.4094L38.035 15.8862L35.8893 18.2328L35.2385 16.2185L36.8859 14.3703L36.5503 11.3384L35.0656 14.2042L34.242 12.5221L35.7266 10.1651L34.4149 7.80806L33.5912 10.1651L33.0929 5.45092L31.2523 0.664342L30.6829 -0.000183105L30.6829 5.01112e-05ZM28.1711 13.7371H32.544V14.3186H28.1711V13.7371ZM33.3269 17.3192V17.9007L27.5203 18.0461V17.4646L33.3269 17.3192ZM34.0489 21.6387L34.2625 22.3655L27.2356 22.4382L27.1644 21.784L34.0488 21.6386L34.0489 21.6387ZM26.666 25.9581L34.7606 26.0308L34.8318 26.6849L26.595 26.6122L26.6662 25.9581H26.666ZM35.4827 30.641L35.6251 31.4405L25.5172 31.5858L25.446 31.0044L35.4829 30.641L35.4827 30.641ZM28.8118 40.4427L31.9642 40.5881L33.6929 42.862L33.8353 56.111L27.1644 56.0383L26.6661 43.1529L28.8118 40.4429L28.8118 40.4427Z" fill="#0B3F5C"/>
<path fill-rule="evenodd" clip-rule="evenodd" d="M5.03405 61.9989L4.86929 59.4754L7.50553 57.7931L7.99983 52.9141C7.99983 52.9141 3.69953 49.7749 3.05685 47.6989C2.48364 45.8476 4.04545 41.3062 4.04545 41.3062C4.04545 41.3062 4.46422 44.5572 5.36355 45.512C6.16562 46.3636 8.9883 46.8579 8.9883 46.8579C8.9883 46.8579 6.79916 44.0949 6.51684 42.6521C6.18401 40.9513 7.34065 36.9322 7.34065 36.9322C7.34065 36.9322 8.40718 40.3332 9.4826 41.3064C10.0326 41.804 11.7893 42.1476 11.7893 42.1476L11.9541 39.9605C11.9541 39.9605 10.0193 38.4004 9.64736 37.437C9.12169 36.0753 9.64736 32.5581 9.64736 32.5581C9.64736 32.5581 10.605 35.2726 11.4598 36.091C11.8149 36.431 12.9427 36.764 12.9427 36.764L13.7665 33.904C13.7665 33.904 12.3863 32.8811 12.1188 32.2216C11.6837 31.1492 12.1188 28.3521 12.1188 28.3521C12.1188 28.3521 12.8461 30.8839 13.7665 31.2121C14.4164 31.4438 15.9084 30.3709 15.9084 30.3709C15.9084 30.3709 14.2599 28.8985 14.096 28.0156C13.9039 26.9802 15.0846 24.6508 15.0846 24.6508L17.0618 28.1838V25.8285L16.0732 23.6414L19.3686 20.6132L19.5334 61.9999H5.03409L5.03405 61.9989Z" fill="#0B3F5C"/>
<path fill-rule="evenodd" clip-rule="evenodd" d="M56.8524 61.6335L57.0171 59.11L54.3809 57.4276L53.8866 52.5487C53.8866 52.5487 58.1869 49.4094 58.8296 47.3335C59.4028 45.4822 57.841 40.9407 57.841 40.9407C57.841 40.9407 57.4222 44.1917 56.5229 45.1465C55.7208 45.9981 52.8981 46.4924 52.8981 46.4924C52.8981 46.4924 55.0873 43.7294 55.3696 42.2866C55.7024 40.5858 54.5458 36.5667 54.5458 36.5667C54.5458 36.5667 53.4792 39.9677 52.4038 40.9409C51.8539 41.4385 50.0971 41.7821 50.0971 41.7821L49.9324 39.595C49.9324 39.595 51.8672 38.0349 52.2391 37.0715C52.7647 35.7099 52.2391 32.1926 52.2391 32.1926C52.2391 32.1926 51.2815 34.9071 50.4267 35.7255C50.0715 36.0655 48.9438 36.3985 48.9438 36.3985L48.12 33.5385C48.12 33.5385 49.5001 32.5156 49.7676 31.8561C50.2027 30.7837 49.7676 27.9866 49.7676 27.9866C49.7676 27.9866 49.0404 30.5184 48.12 30.8466C47.47 31.0783 45.978 30.0054 45.978 30.0054C45.978 30.0054 47.6266 28.533 47.7904 27.6502C47.9826 26.6147 46.8018 24.2853 46.8018 24.2853L44.8246 27.8183V25.463L45.8132 23.2759L42.5178 20.2477L42.353 61.6344H56.8523L56.8524 61.6335Z" fill="#0B3F5C"/>
<path fill-rule="evenodd" clip-rule="evenodd" d="M1.1487 61.7431L4.1591 61.6699L3.87239 59.6207L6.23771 57.2056L6.30938 54.205L0.00195312 54.0587V61.8894L1.14876 61.743L1.1487 61.7431Z" fill="#0B3F5C"/>
<path fill-rule="evenodd" clip-rule="evenodd" d="M60.855 61.5238L57.8446 61.4506L58.1313 59.4014L55.766 56.9863L55.6943 53.9857L62.0018 53.8394V61.6701L60.855 61.5237L60.855 61.5238Z" fill="#0B3F5C"/>
</g>
<defs>
<clipPath id="clip0">
<rect width="62" height="62" fill="white"/>
</clipPath>
</defs>
</svg>
