<svg width="40" height="40" viewBox="0 0 40 40" fill="none" xmlns="http://www.w3.org/2000/svg">
<g clip-path="url(#clip0)">
<path d="M14.5736 22.0678C14.5736 21.5667 14.1671 21.1608 13.6657 21.1608H10.4974C9.99648 21.1608 9.58997 21.5667 9.58997 22.0678V25.2356C9.58997 25.7374 9.99648 26.1435 10.4974 26.1435H13.6657C14.1671 26.1435 14.5736 25.7374 14.5736 25.2356V22.0678Z" fill="white"/>
<path d="M22.4915 22.0678C22.4915 21.5667 22.085 21.1608 21.5845 21.1608H18.4158C17.9149 21.1608 17.5084 21.5667 17.5084 22.0678V25.2356C17.5084 25.7374 17.9149 26.1435 18.4158 26.1435H21.5845C22.085 26.1435 22.4915 25.7374 22.4915 25.2356V22.0678Z" fill="white"/>
<path d="M30.4099 22.0678C30.4099 21.5667 30.0034 21.1608 29.5025 21.1608H26.3342C25.8327 21.1608 25.4263 21.5667 25.4263 22.0678V25.2356C25.4263 25.7374 25.8327 26.1435 26.3342 26.1435H29.5025C30.0034 26.1435 30.4099 25.7374 30.4099 25.2356V22.0678Z" fill="white"/>
<path d="M14.5736 29.9865C14.5736 29.4847 14.1671 29.079 13.6657 29.079H10.4974C9.99648 29.079 9.58997 29.4847 9.58997 29.9865V33.1538C9.58997 33.6552 9.99648 34.0613 10.4974 34.0613H13.6657C14.1671 34.0613 14.5736 33.6552 14.5736 33.1538V29.9865Z" fill="white"/>
<path d="M22.4915 29.9865C22.4915 29.4847 22.085 29.079 21.5845 29.079H18.4158C17.9149 29.079 17.5084 29.4847 17.5084 29.9865V33.1538C17.5084 33.6552 17.9149 34.0613 18.4158 34.0613H21.5845C22.085 34.0613 22.4915 33.6552 22.4915 33.1538V29.9865Z" fill="white"/>
<path d="M30.4099 29.9865C30.4099 29.4847 30.0034 29.079 29.5029 29.079H26.3342C25.8327 29.079 25.4263 29.4847 25.4263 29.9865V33.1538C25.4263 33.6552 25.8327 34.0613 26.3342 34.0613H29.5029C30.0034 34.0613 30.4099 33.6552 30.4099 33.1538V29.9865Z" fill="white"/>
<path d="M36.0751 4.4539V9.29255C36.0751 11.4796 34.3009 13.242 32.1142 13.242H29.6156C27.4287 13.242 25.631 11.4796 25.631 9.29255V4.43652H14.3689V9.29255C14.3689 11.4796 12.5713 13.242 10.3848 13.242H7.88563C5.69902 13.242 3.9249 11.4796 3.9249 9.29255V4.4539C2.01377 4.5115 0.443359 6.09289 0.443359 8.03663V36.3935C0.443359 38.3737 2.04843 40.0001 4.02872 40.0001H35.9712C37.9486 40.0001 39.5566 38.3704 39.5566 36.3935V8.03663C39.5566 6.09289 37.9863 4.5115 36.0751 4.4539ZM34.9146 34.6276C34.9146 35.4834 34.2207 36.1777 33.3646 36.1777H6.56711C5.71098 36.1777 5.0171 35.4834 5.0171 34.6276V19.9803C5.0171 19.1242 5.7109 18.4299 6.56711 18.4299H33.3645C34.2206 18.4299 34.9145 19.1242 34.9145 19.9803L34.9146 34.6276Z" fill="white"/>
<path d="M7.87686 10.6479H10.3484C11.0986 10.6479 11.7068 10.0406 11.7068 9.29038V1.35802C11.7068 0.607762 11.0986 0 10.3484 0H7.87686C7.1266 0 6.51843 0.607762 6.51843 1.35802V9.29038C6.51843 10.0406 7.1266 10.6479 7.87686 10.6479Z" fill="white"/>
<path d="M29.5838 10.6479H32.0553C32.805 10.6479 33.4133 10.0406 33.4133 9.29038V1.35802C33.4134 0.607762 32.8051 0 32.0553 0H29.5838C28.8337 0 28.2255 0.607762 28.2255 1.35802V9.29038C28.2255 10.0406 28.8337 10.6479 29.5838 10.6479Z" fill="white"/>
</g>
<defs>
<clipPath id="clip0">
<rect width="40" height="40" fill="white"/>
</clipPath>
</defs>
</svg>
